<?xml version="1.0" ?><!DOCTYPE svg  PUBLIC '-//W3C//DTD SVG 1.1//EN'  'http://www.w3.org/Graphics/SVG/1.1/DTD/svg11.dtd'><svg enable-background="new 0 0 512 512" height="512px" id="Layer_1" version="1.1" viewBox="0 0 512 512" width="512px" xml:space="preserve" xmlns="http://www.w3.org/2000/svg" xmlns:xlink="http://www.w3.org/1999/xlink"><g><path d="M400,32H186.203c-8.883,0-17.422,3.5-23.758,9.719l-92.258,90.719c-3.96,3.968-6.187,9.39-6.187,15.015V432   c0,26.516,21.492,48,48,48h288c26.5,0,48-21.484,48-48V80C448,53.484,426.5,32,400,32z M400,176v251.203   c0,2.656-2.156,4.797-4.797,4.797H116.797c-2.648,0-4.797-2.141-4.797-4.797V176h64c17.672,0,32-14.328,32-32V80h187.203   c2.641,0,4.797,2.141,4.797,4.797V176z M352,132v24c0,2.203-1.781,4-4,4h-88c-2.211,0-4-1.797-4-4v-24c0-2.203,1.789-4,4-4h88   C350.219,128,352,129.797,352,132z M368,228v24c0,2.203-1.781,4-4,4H148c-2.211,0-4-1.797-4-4v-24c0-2.203,1.789-4,4-4h216   C366.219,224,368,225.797,368,228z M324.25,400h7.5c2.344,0,4.25-1.906,4.25-4.25v-11.859c8.227-0.297,15.742-3.422,20.813-6.922   c7.423-5.156,11.188-12.891,11.188-23.047c0-15.281-17.078-21.797-28.547-24.641l-15.978-3.531   c-7.727-1.75-14.375-4.016-14.375-10.297c0-3.422,1.938-5.938,4.898-7.688c3.109-1.828,7.766-3.188,13.875-3.188   c6.031,0,10.688,1.655,13.867,4.078c1.586,1.219,3.203,3.577,4.008,6.125c0.422,1.297,1.828,2.202,3.43,2.202h14.906   c1.016,0,1.984-0.375,2.656-1.016s0.983-1.5,0.858-2.344c-1.047-7.063-4.375-12.922-9.983-17.594   c-4.563-3.813-13.672-7.344-21.617-7.672V276.25c0-2.344-1.906-4.25-4.25-4.25h-7.5c-2.344,0-4.25,1.906-4.25,4.25v11.859   c-8.227,0.297-15.742,3.422-20.813,6.922C291.766,300.172,288,306.688,288,318.078c0,15.813,17.086,21.703,28.547,24.641   l15.978,3.531c7.727,1.75,14.375,3.828,14.375,10.297c0,3.422-1.938,5.938-4.898,7.688c-3.109,1.828-7.766,3.188-13.875,3.188   c-6.031,0-10.688-1.655-13.867-4.078c-1.586-1.219-3.203-3.577-4.008-6.125c-0.422-1.297-1.828-2.202-3.43-2.202h-14.906   c-1.017,0-1.983,0.375-2.656,1.016c-0.672,0.641-0.983,1.5-0.858,2.344c1.047,7.063,4.375,12.922,9.983,17.594   c4.586,3.813,12.445,7.375,21.617,7.688v12.094C320,398.094,321.906,400,324.25,400z M256,292v24c0,2.203-1.781,4-4,4H148   c-2.211,0-4-1.797-4-4v-24c0-2.203,1.789-4,4-4h104C254.219,288,256,289.797,256,292z M256,356v24c0,2.203-1.781,4-4,4H148   c-2.211,0-4-1.797-4-4v-24c0-2.203,1.789-4,4-4h104C254.219,352,256,353.797,256,356z" fill="#4D4D4D"/></g></svg>